<?xml version="1.0" encoding="utf-8"?>
<!-- Generator: Adobe Illustrator 21.0.2, SVG Export Plug-In . SVG Version: 6.00 Build 0)  -->
<svg version="1.1" xmlns="http://www.w3.org/2000/svg" xmlns:xlink="http://www.w3.org/1999/xlink" x="0px" y="0px"
	 viewBox="0 0 200.6 114.7" style="enable-background:new 0 0 200.6 114.7;" xml:space="preserve">
<style type="text/css">
	.st0{fill:#A08B8B;}
	.st1{opacity:0.37;}
	.st2{fill:#3F0505;}
	.st3{fill:#700B0B;}
	.st4{fill:#B71313;}
	.st5{fill:#E01919;}
	.st6{fill:#EF0F0F;}
	.st7{fill:#F90606;}
	.st8{fill:#F20C0C;}
	.st9{fill:#E50E0E;}
	.st10{fill:#D31616;}
	.st11{fill:#A50F0F;}
	.st12{fill:#590707;}
	.st13{fill:#280303;}
	.st14{fill:#190101;}
</style>
<g id="Layer_2">
	<rect x="-1.1" class="st0" width="203" height="114.7"/>
</g>
<g id="Layer_1">
	<g class="st1">
		<g id="XMLID_2_">
			<g>
				<polygon class="st2" points="117.6,70.6 117.6,82.5 117.6,82.5 107.3,76.5 				"/>
				<polygon class="st3" points="117.6,58.7 117.6,70.6 117.6,70.6 107.3,64.6 				"/>
				<polygon class="st4" points="117.6,46.8 117.6,58.7 117.6,58.7 107.3,52.7 				"/>
				<polygon class="st5" points="117.6,34.9 117.6,46.8 117.6,46.8 107.3,40.9 				"/>
				<polygon class="st6" points="117.6,23 117.6,34.9 117.6,34.9 107.3,29 				"/>
				<polygon class="st7" points="117.6,11.1 117.6,23 117.6,23 107.3,17.1 				"/>
				<polygon class="st8" points="117.6,23 107.3,29 97,23 107.3,17.1 				"/>
				<polygon class="st9" points="117.6,34.9 107.3,40.9 97,34.9 107.3,29 				"/>
				<polygon class="st10" points="117.6,46.8 107.3,52.7 97,46.8 107.3,40.9 				"/>
				<polygon class="st11" points="117.6,58.7 107.3,64.6 97,58.7 107.3,52.7 				"/>
				<polygon class="st12" points="117.6,70.6 107.3,76.5 97,70.6 107.3,64.6 				"/>
				<polygon class="st13" points="107.3,76.5 117.6,82.5 107.3,88.5 97,82.5 				"/>
				<polygon class="st2" points="97,70.6 107.3,76.5 97,82.5 				"/>
				<polygon class="st6" points="107.3,29 97,34.9 97,23 				"/>
				<polygon class="st4" points="107.3,52.7 97,58.7 97,46.8 				"/>
				<polygon class="st5" points="97,34.9 107.3,40.9 97,46.8 				"/>
				<polygon class="st3" points="97,58.7 107.3,64.6 97,70.6 				"/>
				<polygon class="st14" points="97,82.5 107.3,88.5 97,94.4 86.7,88.5 				"/>
				<polygon class="st2" points="97,70.6 97,82.5 86.7,76.5 				"/>
				<polygon class="st13" points="86.7,76.5 97,82.5 86.7,88.5 86.7,88.4 86.7,76.6 				"/>
				<polygon points="97,94.4 86.7,100.4 86.7,100.3 86.7,88.5 86.7,88.5 				"/>
				<polygon points="86.7,88.5 86.7,100.3 76.4,94.4 				"/>
				<polygon class="st14" points="86.7,88.4 86.7,88.5 76.4,94.4 66.1,88.5 76.4,82.5 				"/>
				<polygon class="st13" points="86.7,76.6 86.7,88.4 76.4,82.5 				"/>
				<polygon class="st2" points="86.7,76.5 86.7,76.6 76.4,82.5 66.1,76.5 76.4,70.6 				"/>
				<polygon class="st12" points="86.7,64.7 86.7,76.5 76.4,70.6 				"/>
				<polygon class="st13" points="76.4,82.5 66.1,88.5 66.1,76.5 66.1,76.5 66.1,76.5 				"/>
			</g>
		</g>
	</g>
	<g>
		<g id="XMLID_1_">
			<g>
				<polygon class="st2" points="122.7,73.5 122.7,85.4 122.7,85.4 112.4,79.5 				"/>
				<polygon class="st3" points="122.7,61.6 122.7,73.5 122.7,73.5 112.4,67.6 				"/>
				<polygon class="st4" points="122.7,49.8 122.7,61.6 122.7,61.6 112.4,55.7 				"/>
				<polygon class="st5" points="122.7,37.9 122.7,49.8 122.7,49.8 112.4,43.8 				"/>
				<polygon class="st6" points="122.7,26 122.7,37.9 122.7,37.9 112.4,31.9 122.7,25.9 				"/>
				<polygon class="st7" points="122.7,14 122.7,25.9 122.7,25.9 112.4,20 				"/>
				<polygon class="st8" points="122.7,25.9 112.4,31.9 102.1,25.9 112.4,20 				"/>
				<polygon class="st9" points="122.7,37.9 112.4,43.8 102.1,37.9 112.4,31.9 				"/>
				<polygon class="st10" points="122.7,49.8 112.4,55.7 102.1,49.8 112.4,43.8 				"/>
				<polygon class="st11" points="122.7,61.6 112.4,67.6 102.1,61.6 112.4,55.7 				"/>
				<polygon class="st12" points="122.7,73.5 112.4,79.5 102.1,73.5 112.4,67.6 				"/>
				<polygon class="st13" points="112.4,79.5 122.7,85.4 112.4,91.4 102.1,85.4 				"/>
				<polygon class="st2" points="102.1,73.5 112.4,79.5 102.1,85.4 				"/>
				<polygon class="st6" points="112.4,31.9 102.1,37.9 102.1,25.9 				"/>
				<polygon class="st4" points="112.4,55.7 102.1,61.6 102.1,49.8 				"/>
				<polygon class="st5" points="102.1,37.9 112.4,43.8 102.1,49.8 				"/>
				<polygon class="st3" points="102.1,61.6 112.4,67.6 102.1,73.5 				"/>
				<polygon class="st14" points="102.1,85.4 112.4,91.4 102.1,97.3 91.8,91.4 				"/>
				<polygon class="st2" points="102.1,73.5 102.1,85.4 91.8,79.5 				"/>
				<polygon class="st13" points="91.8,79.5 102.1,85.4 91.8,91.4 91.7,91.3 91.7,79.5 				"/>
				<polygon points="102.1,97.3 91.8,103.3 91.7,103.2 91.7,91.4 91.8,91.4 				"/>
				<polygon points="91.7,91.4 91.7,103.2 81.5,97.3 				"/>
				<polygon class="st14" points="91.7,91.3 91.7,91.4 81.5,97.3 71.1,91.4 81.5,85.4 				"/>
				<polygon class="st13" points="91.7,79.5 91.7,91.3 81.5,85.4 				"/>
				<polygon class="st2" points="91.7,79.4 91.7,79.5 81.5,85.4 71.1,79.5 81.5,73.5 				"/>
				<polygon class="st12" points="91.7,67.6 91.7,79.4 81.5,73.5 				"/>
				<polygon class="st13" points="81.5,85.4 71.1,91.4 71.1,79.5 71.1,79.5 71.1,79.5 				"/>
			</g>
		</g>
	</g>
</g>
</svg>
