<?xml version="1.0" encoding="utf-8"?>
<!-- Generator: Adobe Illustrator 21.0.2, SVG Export Plug-In . SVG Version: 6.00 Build 0)  -->
<svg version="1.1" id="logo" xmlns="http://www.w3.org/2000/svg" xmlns:xlink="http://www.w3.org/1999/xlink" x="0px" y="0px"
	 viewBox="0 0 344 69.8" style="enable-background:new 0 0 344 69.8;" xml:space="preserve">
<style type="text/css">
	.st0{fill:#0D0D0D;stroke:#0D0D0D;stroke-width:0.25;stroke-miterlimit:10;}
	.st1{stroke:#000000;stroke-width:0.5;stroke-miterlimit:10;}
</style>
<polyline id="F" class="st0" points="8,61.8 17,61.8 17,38.8 43,38.8 43,30.8 17,30.8 17,13.8 47,13.8 47,4.8 8,4.8 8,61.8 "/>
<path id="R" d="M107,42.8c0,0,12.9-2,12-20c-1-19-24-18-24-18H72v57h10v-17h17l10,17h11L107,42.8z M96,35.8H82v-22h14
	c0,0,13-1,14,10C111.2,36.8,96,35.8,96,35.8z"/>
<polygon points="143.1,61.8 165.6,4.8 174.8,4.8 196.4,61.8 187.2,61.8 170,18.9 152.2,61.8 "/>
<polygon id="N" class="st1" points="220.5,61.3 230.5,61.3 230.5,20.3 260.5,61.3 270.5,61.3 270.5,4.3 260.5,4.3 260.5,45.3 
	230.5,4.3 220.5,4.3 "/>
<circle class="st1" cx="305" cy="55.8" r="5.5"/>
</svg>
